<?xml version="1.0" encoding="UTF-8"?>
<svg version="1.1" xmlns="http://www.w3.org/2000/svg" width="512" height="512">
<path d="M0 0 C5.64436822 2.69264123 9.06489219 7.27787063 13 12 C22.45420969 20.24423491 32.62791716 24.54105229 45.20703125 24.24609375 C55.56730915 23.3332301 64.15758915 18.36976196 71.875 11.625 C76.02072762 8.45276307 79.76849408 8.28638325 84.875 8.203125 C93.20559115 10.32742574 99.62329772 18.33641963 105.48950195 24.23071289 C106.40268692 25.14039322 107.31587189 26.05007355 108.25672913 26.98731995 C110.74038062 29.46192367 113.21774856 31.9427269 115.69369149 34.42504048 C118.29442866 37.03087276 120.90007791 39.63178618 123.50492859 42.23350525 C127.87350404 46.59845318 132.23787023 50.96757641 136.59985352 55.33911133 C141.63694894 60.38710943 146.68123619 65.42783493 151.72927886 70.46488386 C156.07454367 74.80106555 160.4158901 79.14114135 164.75399941 83.48448175 C167.34024353 86.07383729 169.9278044 88.66183813 172.51891518 91.24632454 C175.40419 94.12473581 178.28120377 97.01126918 181.1574707 99.89868164 C182.01308594 100.75024841 182.86870117 101.60181519 183.75024414 102.47918701 C184.53373734 103.26831985 185.31723053 104.0574527 186.12446594 104.87049866 C186.80449834 105.5512851 187.48453074 106.23207155 188.18517017 106.93348789 C192.77081778 112.15507736 193.6554594 116.18708342 193.48046875 123.01171875 C192.84088212 126.98963562 191.32988752 129.03241003 188.72265625 132.015625 C181.34124169 140.51847896 177.28537232 150.80588526 177.65234375 162.0703125 C178.65329838 170.50532341 181.1539515 177.94812604 186.73046875 184.4140625 C188 186 188 186 189 189 C190.33159573 189.67013061 191.66524723 190.33617979 193 191 C195.10546875 193.09375 195.10546875 193.09375 197.1875 195.5 C197.88230469 196.2940625 198.57710938 197.088125 199.29296875 197.90625 C201.99095696 201.21545293 202.26077791 203.3943802 202.4375 207.625 C202.49808594 208.62789062 202.55867187 209.63078125 202.62109375 210.6640625 C200.86581667 220.09177715 190.96415559 227.31751333 184.41648865 233.83747864 C183.23063326 235.02564087 182.04521383 236.21423833 180.86019093 237.40323085 C177.6156301 240.65611712 174.3648898 243.90276495 171.11306345 247.14838588 C167.60228813 250.65462867 164.09728193 254.16663056 160.59152222 257.67788696 C153.72880108 264.54949433 146.86069248 271.41569235 139.99062734 278.27995656 C134.40838124 283.85768426 128.82809229 289.43736298 123.24919319 295.01843834 C122.45492107 295.81301693 121.66064895 296.60759552 120.84230797 297.42625224 C119.22876236 299.04043731 117.61522124 300.65462686 116.00168455 302.26882084 C100.87781125 317.3983949 85.74781767 332.52183654 70.61572022 347.64318445 C57.62811274 360.62185147 44.64576521 373.60576056 31.66723633 386.59350586 C16.59500211 401.67643828 1.51953505 416.75612725 -13.5611214 431.83063906 C-15.16842145 433.43730201 -16.77571732 435.04396913 -18.38300896 436.65064049 C-19.17383512 437.4411581 -19.96466128 438.23167571 -20.77945187 439.04614839 C-26.35598598 444.62095461 -31.93019378 450.19808042 -37.50351143 455.77610207 C-44.29188399 462.57007823 -51.08379703 469.3604908 -57.88030238 476.14633153 C-61.34871553 479.60948177 -64.81549788 483.07422423 -68.2779789 486.54330635 C-71.4459563 489.71723211 -74.61849349 492.88652365 -77.79477059 496.05214294 C-78.94446529 497.19959896 -80.09246809 498.34875315 -81.23862202 499.49974594 C-82.794299 501.06148727 -84.35598181 502.61696636 -85.91933537 504.17101765 C-86.78602221 505.03737978 -87.65270905 505.90374192 -88.54565912 506.79635745 C-93.92299249 511.6244238 -97.87481635 512.66408643 -104.9921875 512.48046875 C-111.75738001 511.39979514 -115.41589231 506.78184691 -119.48828125 501.640625 C-127.09377862 493.38659685 -136.87284164 488.94653652 -147.91796875 487.66015625 C-160.36249356 487.22135072 -170.65313751 492.31539704 -179.875 500.375 C-184.02072762 503.54723693 -187.76849408 503.71361675 -192.875 503.796875 C-201.20559115 501.67257426 -207.62329772 493.66358037 -213.48950195 487.76928711 C-214.40268692 486.85960678 -215.31587189 485.94992645 -216.25672913 485.01268005 C-218.74038062 482.53807633 -221.21774856 480.0572731 -223.69369149 477.57495952 C-226.29442866 474.96912724 -228.90007791 472.36821382 -231.50492859 469.76649475 C-235.87350404 465.40154682 -240.23787023 461.03242359 -244.59985352 456.66088867 C-249.63694894 451.61289057 -254.68123619 446.57216507 -259.72927886 441.53511614 C-264.07454367 437.19893445 -268.4158901 432.85885865 -272.75399941 428.51551825 C-275.34024353 425.92616271 -277.9278044 423.33816187 -280.51891518 420.75367546 C-283.40419 417.87526419 -286.28120377 414.98873082 -289.1574707 412.10131836 C-290.01308594 411.24975159 -290.86870117 410.39818481 -291.75024414 409.52081299 C-292.53373734 408.73168015 -293.31723053 407.9425473 -294.12446594 407.12950134 C-294.80449834 406.4487149 -295.48453074 405.76792845 -296.18517017 405.06651211 C-300.77081778 399.84492264 -301.6554594 395.81291658 -301.48046875 388.98828125 C-300.84187468 385.01653766 -299.34236248 382.97302518 -296.7265625 380.00390625 C-294.77382022 377.73748817 -293.28455176 375.37890552 -291.75 372.8125 C-291.27046875 372.01457031 -290.7909375 371.21664063 -290.296875 370.39453125 C-285.10914421 360.81598012 -284.7297428 350.74266374 -287.625 340.375 C-290.36386107 332.14873883 -294.88222147 326.97211713 -301 321 C-310.15909183 311.03992296 -310.15909183 311.03992296 -310.4375 304.375 C-310.49808594 303.37210937 -310.55867188 302.36921875 -310.62109375 301.3359375 C-308.86581667 291.90822285 -298.96415559 284.68248667 -292.41648865 278.16252136 C-291.23063326 276.97435913 -290.04521383 275.78576167 -288.86019093 274.59676915 C-285.6156301 271.34388288 -282.3648898 268.09723505 -279.11306345 264.85161412 C-275.60228813 261.34537133 -272.09728193 257.83336944 -268.59152222 254.32211304 C-261.72880108 247.45050567 -254.86069248 240.58430765 -247.99062734 233.72004344 C-242.40838124 228.14231574 -236.82809229 222.56263702 -231.24919319 216.98156166 C-230.45492107 216.18698307 -229.66064895 215.39240448 -228.84230797 214.57374776 C-227.22876236 212.95956269 -225.61522124 211.34537314 -224.00168455 209.73117916 C-208.87781125 194.6016051 -193.74781767 179.47816346 -178.61572022 164.35681555 C-165.62811274 151.37814853 -152.64576521 138.39423944 -139.66723633 125.40649414 C-124.59500211 110.32356172 -109.51953505 95.24387275 -94.4388786 80.16936094 C-92.83157855 78.56269799 -91.22428268 76.95603087 -89.61699104 75.34935951 C-88.82616488 74.5588419 -88.03533872 73.76832429 -87.22054813 72.95385161 C-81.64401402 67.37904539 -76.06980622 61.80191958 -70.49648857 56.22389793 C-63.70811601 49.42992177 -56.91620297 42.6395092 -50.11969762 35.85366847 C-46.65128447 32.39051823 -43.18450212 28.92577577 -39.7220211 25.45669365 C-36.5540437 22.28276789 -33.38150651 19.11347635 -30.20522941 15.94785706 C-29.05553471 14.80040104 -27.90753191 13.65124685 -26.76137798 12.50025406 C-25.205701 10.93851273 -23.64401819 9.38303364 -22.08066463 7.82898235 C-21.21397779 6.96262022 -20.34729095 6.09625808 -19.45434088 5.20364255 C-13.34668175 -0.28015054 -8.04822077 -1.28562488 0 0 Z " fill="#FE5591" transform="translate(310,0)"/>
<path d="M0 0 C3.58189479 1.5219163 5.88614619 3.632818 8.62915039 6.37036133 C9.99560448 7.72735893 9.99560448 7.72735893 11.3896637 9.11177063 C12.37591615 10.10160355 13.36190733 11.09169686 14.34765625 12.08203125 C15.36579168 13.09881858 16.38422377 14.11530893 17.40293884 15.1315155 C19.53532233 17.26095322 21.6640541 19.3939587 23.7902832 21.52954102 C26.50930521 24.25994266 29.23718769 26.98128648 31.96788883 29.70000172 C34.07251552 31.79738267 36.17233228 33.8995272 38.27075005 36.00311852 C39.27436157 37.00805978 40.27944871 38.01152971 41.28605843 39.01346779 C42.69564084 40.41794216 44.09809047 41.82956417 45.50024414 43.24145508 C46.69793175 44.44152946 46.69793175 44.44152946 47.91981506 45.66584778 C52.67322539 50.99959627 53.66073944 54.98116179 53.48046875 62.01171875 C52.84088212 65.98963562 51.32988752 68.03241003 48.72265625 71.015625 C41.34124169 79.51847896 37.28537232 89.80588526 37.65234375 101.0703125 C38.65329838 109.50532341 41.1539515 116.94812604 46.73046875 123.4140625 C48 125 48 125 49 128 C50.33159573 128.67013061 51.66524723 129.33617979 53 130 C55.10546875 132.09375 55.10546875 132.09375 57.1875 134.5 C57.88230469 135.2940625 58.57710938 136.088125 59.29296875 136.90625 C61.99095696 140.21545293 62.26077791 142.3943802 62.4375 146.625 C62.49808594 147.62789062 62.55867188 148.63078125 62.62109375 149.6640625 C60.86581667 159.09177715 50.96415559 166.31751333 44.41648865 172.83747864 C43.23063326 174.02564087 42.04521383 175.21423833 40.86019093 176.40323085 C37.6156301 179.65611712 34.3648898 182.90276495 31.11306345 186.14838588 C27.60228813 189.65462867 24.09728193 193.16663056 20.59152222 196.67788696 C13.72880108 203.54949433 6.86069248 210.41569235 -0.00937266 217.27995656 C-5.59161876 222.85768426 -11.17190771 228.43736298 -16.75080681 234.01843834 C-17.54507893 234.81301693 -18.33935105 235.60759552 -19.15769203 236.42625224 C-20.77123764 238.04043731 -22.38477876 239.65462686 -23.99831545 241.26882084 C-39.12218875 256.3983949 -54.25218233 271.52183654 -69.38427978 286.64318445 C-82.37188726 299.62185147 -95.35423479 312.60576056 -108.33276367 325.59350586 C-123.40499789 340.67643828 -138.48046495 355.75612725 -153.5611214 370.83063906 C-155.16842145 372.43730201 -156.77571732 374.04396913 -158.38300896 375.65064049 C-159.5692482 376.8364169 -159.5692482 376.8364169 -160.77945187 378.04614839 C-166.35598598 383.62095461 -171.93019378 389.19808042 -177.50351143 394.77610207 C-184.29188399 401.57007823 -191.08379703 408.3604908 -197.88030238 415.14633153 C-201.34871553 418.60948177 -204.81549788 422.07422423 -208.2779789 425.54330635 C-211.4459563 428.71723211 -214.61849349 431.88652365 -217.79477059 435.05214294 C-218.94446529 436.19959896 -220.09246809 437.34875315 -221.23862202 438.49974594 C-222.794299 440.06148727 -224.35598181 441.61696636 -225.91933537 443.17101765 C-226.78602221 444.03737978 -227.65270905 444.90374192 -228.54565912 445.79635745 C-233.92299249 450.6244238 -237.87481635 451.66408643 -244.9921875 451.48046875 C-251.75738001 450.39979514 -255.41589231 445.78184691 -259.48828125 440.640625 C-267.09377862 432.38659685 -276.87284164 427.94653652 -287.91796875 426.66015625 C-300.36249356 426.22135072 -310.65313751 431.31539704 -319.875 439.375 C-324.02072762 442.54723693 -327.76849408 442.71361675 -332.875 442.796875 C-341.68659882 440.5499173 -348.42852847 431.86695959 -354.625 425.640625 C-355.62218603 424.6447889 -356.61966856 423.64924963 -357.61743164 422.6539917 C-359.69141123 420.58293971 -361.76178219 418.50836606 -363.82958984 416.43115234 C-366.48372305 413.76553604 -369.14685706 411.10912042 -371.81268311 408.45520401 C-373.86654835 406.40854536 -375.91565191 404.35717298 -377.96331787 402.30431366 C-378.94428643 401.32200989 -379.92674574 400.34119252 -380.91070557 399.36188507 C-382.27732896 398.00031662 -383.6369001 396.63168061 -384.99609375 395.26269531 C-385.77138428 394.4858136 -386.5466748 393.70893188 -387.34545898 392.9085083 C-389 391 -389 391 -389 389 C-387.52806568 387.54727548 -387.52806568 387.54727548 -385.49433899 385.86182308 C-381.15213254 382.16629815 -377.11230387 378.24956718 -373.09057617 374.21083069 C-372.33645069 373.45755963 -371.58232521 372.70428858 -370.80534744 371.92819113 C-368.29884356 369.42332405 -365.79591199 366.91491873 -363.29296875 364.40649414 C-361.4890709 362.602314 -359.68495239 360.79835445 -357.88063049 358.99459839 C-354.00670017 355.1208952 -350.13429979 351.24567288 -346.26330566 347.36903572 C-340.66660865 341.76418533 -335.06712737 336.16212328 -329.46697927 330.56072133 C-320.37950991 321.47106747 -311.29427243 312.37918624 -302.21044922 303.28588867 C-293.39033715 294.45658691 -284.56916745 285.628344 -275.74658203 276.80151367 C-274.92980443 275.98434198 -274.92980443 275.98434198 -274.09652627 275.15066177 C-271.36462354 272.41745394 -268.63270011 269.68426681 -265.90076637 266.95108998 C-243.26396562 244.30393534 -220.63079165 221.65315946 -198 199 C-199.41644495 196.04032784 -200.74917328 194.04109597 -203.15234375 191.79296875 C-203.76400391 191.20580078 -204.37566406 190.61863281 -205.00585938 190.01367188 C-206.28571398 188.8036981 -207.56953282 187.59790275 -208.85742188 186.39648438 C-213.85150997 181.58094412 -216.55541385 177.55668921 -217.4375 170.5 C-216.81757559 165.54060468 -215.29256259 161.97334501 -211.45703125 158.671875 C-207.84492669 156.32442032 -204.40998609 155.30382332 -200.02172852 155.55371094 C-192.86681039 157.13313255 -187.37939219 163.22892723 -182.5 168.3125 C-181.86835938 168.95767578 -181.23671875 169.60285156 -180.5859375 170.26757812 C-179.0500978 171.83832328 -177.5217887 173.41565886 -176 175 C-172.07807669 173.40894082 -169.43687683 170.71276849 -166.51293945 167.75585938 C-165.97751526 167.22233353 -165.44209106 166.68880768 -164.89044189 166.13911438 C-163.12646824 164.37883782 -161.36978525 162.61147782 -159.61328125 160.84375 C-158.38864509 159.61792152 -157.16363881 158.39246271 -155.9382782 157.1673584 C-153.37395362 154.60147089 -150.81302084 152.03226155 -148.25463867 149.46044922 C-144.97098571 146.15977987 -141.68076143 142.86575852 -138.38821125 139.57396698 C-135.85981712 137.04530133 -133.3340346 134.51404093 -130.80913353 131.98188782 C-129.59644922 130.76601635 -128.38315389 129.55075399 -127.16924477 128.33610535 C-125.47658678 126.64128584 -123.78725894 124.94321852 -122.09887695 123.24414062 C-121.59446579 122.74018265 -121.09005463 122.23622467 -120.57035828 121.71699524 C-117.95809588 119.10428215 -117.95809588 119.10428215 -116 116 C-114.16503906 115.22558594 -114.16503906 115.22558594 -111.765625 114.484375 C-110.88729004 114.20537354 -110.00895508 113.92637207 -109.10400391 113.63891602 C-108.16218262 113.34557373 -107.22036133 113.05223145 -106.25 112.75 C-98.74821272 110.35569118 -91.76391268 107.74597597 -84.7890625 104.06640625 C-81.3248578 102.74185739 -78.68095979 102.67004202 -75 103 C-71.87448439 104.54690834 -69.68345679 107.06801347 -67.625 109.875 C-66.37382933 114.12898029 -66.57844189 117.76167306 -68 121.9375 C-72.6728076 129.09273664 -77.76281212 133.6967863 -86 136 C-92.18168936 137.83500983 -95.24916867 139.6579069 -99 145 C-100.53597454 148.07194908 -100.2265038 150.60244293 -100 154 C-98.58376759 157.25058324 -98.58376759 157.25058324 -97 160 C-97 160.66 -97 161.32 -97 162 C-91.26633196 165.07160788 -85.3145717 166.09933753 -78.91308594 164.46826172 C-76.8293249 163.74741714 -74.79091544 162.95921449 -72.75 162.125 C-72.05648438 161.85558594 -71.36296875 161.58617187 -70.6484375 161.30859375 C-67.91111231 160.23359056 -65.27082195 159.15581537 -62.71875 157.6875 C-62.1515625 157.460625 -61.584375 157.23375 -61 157 C-59.29360394 157.98445926 -57.59003447 158.97549117 -55.921875 160.0234375 C-52.60651468 161.70807181 -49.60606817 161.68720749 -46 161 C-41.5595916 159.50213768 -39.44408922 157.75924932 -37.0625 153.6875 C-35.78235914 149.2446582 -34.86534872 145.47374424 -36.8671875 141.109375 C-37.86384454 139.3779562 -38.92953912 137.68678684 -40 136 C-41.20269844 132.39190467 -40.64360066 131.2094493 -39.5625 127.625 C-36.06972806 114.21987067 -38.15043325 103.70495289 -44.75 91.75 C-50.47039003 82.72608473 -59.16090611 76.53290035 -69.625 74.1875 C-70.40875 74.125625 -71.1925 74.06375 -72 74 C-68.02667008 69.23680397 -63.88036359 64.74304347 -59.47558594 60.37792969 C-58.5427478 59.44728195 -58.5427478 59.44728195 -57.59106445 58.49783325 C-56.25323311 57.16378039 -54.91424877 55.83088297 -53.57421112 54.49904633 C-51.45366517 52.39135128 -49.33633561 50.28047149 -47.2197876 48.16876221 C-42.73266703 43.69301852 -38.24161463 39.22123307 -33.75 34.75 C-28.52944372 29.55305232 -23.31051592 24.35449077 -18.09577179 19.15171051 C-16.0093824 17.07180469 -13.92000623 14.99493115 -11.83050537 12.91815186 C-10.55580171 11.64707955 -9.28123758 10.3758673 -8.00683594 9.10449219 C-7.42500549 8.52782806 -6.84317505 7.95116394 -6.24371338 7.35702515 C-3.88334983 4.99697402 -1.8581773 2.78726595 0 0 Z " fill="#FE415A" transform="translate(450,61)"/>
<path d="M0 0 C2.18534517 1.13314194 4.16263138 2.42043615 6.19140625 3.8125 C8.50964992 5.33462975 10.22225084 5.92690134 13 6 C15.00431449 5.34641919 17.0040278 4.67863055 19 4 C24.26230149 3.53015165 27.5576146 4.10279213 32 7 C35.26748907 9.84129485 36.71886356 11.35718533 37.44921875 15.625 C37.63053406 20.22665756 37.32987289 23.31581919 35.3125 27.5 C30.86544129 32.30763104 25.49476659 33.99026132 19.42578125 36.03515625 C16.86963675 36.86655907 16.86963675 36.86655907 15 39 C14.49033587 44.88336903 14.49033587 44.88336903 17 50 C22.69864578 49.46753477 27.50269148 48.34966873 32.8125 46.25 C33.5024707 45.98485596 34.19244141 45.71971191 34.90332031 45.4465332 C39.94798273 43.48296109 44.88418738 41.32264922 49.765625 38.98046875 C57.45248203 35.60738988 68.03786871 35.70652528 76.015625 38.1953125 C89.51978186 43.6714076 97.12560755 51.78959518 102.90625 65.1171875 C106.79710392 75.37236677 105.25250116 85.57071027 102.265625 95.90625 C101.66089145 99.1197734 101.66089145 99.1197734 103.859375 101.71875 C104.56578125 102.4715625 105.2721875 103.224375 106 104 C107.68268168 109.04804504 107.56212419 113.32083946 105.4375 118.1875 C103.14694886 122.3265661 100.49932588 124.53382456 96 126 C90.87525155 126.65076171 88.44814317 126.42752032 84.125 123.6875 C82.17662593 122.48956368 82.17662593 122.48956368 80 122 C77.23926202 122.85014622 75.00598739 124.09538636 72.51171875 125.546875 C65.51573922 129.59431572 58.26173364 131.34602488 50.3125 129.3125 C46.48692025 127.14122501 43.81580503 124.47621862 41.6875 120.625 C40.40860843 115.74195947 40.29620172 112.32939675 42.6875 107.8125 C46.67656667 102.96093243 49.82104009 100.97363333 55.8125 99.1875 C63.42287392 96.81628743 68.51987981 92.54487124 73 86 C74.20643566 82.38069302 74.32268559 79.80768995 74 76 C71.97333762 72.29609979 70.51955484 70.34636989 67 68 C60.42374806 67.15904707 55.68738652 69.55875954 49.875 72.25 C47.99798523 73.08110792 46.11907852 73.90795647 44.23828125 74.73046875 C43.3354541 75.12540527 42.43262695 75.5203418 41.50244141 75.92724609 C30.37643289 80.69677599 18.6238269 83.59476985 6.75 79.5625 C-3.75675824 74.63745708 -10.76346956 65.78097385 -15.140625 55.2578125 C-16.23191732 51.12082251 -16.29240128 47.32029519 -16.25 43.0625 C-16.25773437 42.28970703 -16.26546875 41.51691406 -16.2734375 40.72070312 C-16.26033679 36.84616679 -15.98046124 33.93587616 -14.8359375 30.1796875 C-13.69008574 27.12972248 -13.69008574 27.12972248 -14.8984375 24.84765625 C-15.38570313 24.25855469 -15.87296875 23.66945313 -16.375 23.0625 C-19.44997444 18.69856367 -19.75859245 16.31014714 -19 11 C-17.30203013 6.0958635 -14.58115407 2.95091244 -9.91796875 0.6640625 C-6.51586917 -0.51385385 -3.47186113 -0.7950827 0 0 Z " fill="#FDDA79" transform="translate(308,97)"/>
<path d="M0 0 C4.52741306 2.57522578 7.21220499 4.97254597 8.81640625 10.0859375 C9.71551295 17.05401446 7.89742848 20.53842826 3.81640625 26.0859375 C1.33898524 28.95383816 -1.30947106 31.62266839 -3.99975586 34.2902832 C-4.77113388 35.06691818 -5.5425119 35.84355316 -6.33726501 36.64372253 C-8.8710316 39.19061695 -11.41552314 41.72646932 -13.9609375 44.26171875 C-15.73347601 46.03627964 -17.50556911 47.81128554 -19.27723694 49.5867157 C-22.98359355 53.29748555 -26.6951668 57.00295722 -30.41088867 60.7043457 C-34.69788534 64.97499524 -38.97393561 69.25637693 -43.24450868 73.54344493 C-47.36767353 77.68189226 -51.49926528 81.81183164 -55.63446236 85.9382534 C-57.38733639 87.68912825 -59.13799031 89.4422287 -60.88636589 91.1975956 C-63.32973329 93.64858872 -65.78252391 96.0897477 -68.23803711 98.52856445 C-69.31598541 99.6156218 -69.31598541 99.6156218 -70.41571045 100.72463989 C-75.21068217 105.45944302 -79.16764116 108.69678233 -86.05859375 109.5859375 C-90.95082571 109.37935573 -94.54384748 107.25711873 -98.18359375 104.0859375 C-100.88113699 100.29251732 -101.79882322 96.83061219 -101.59251499 92.14031506 C-100.12028173 84.74396908 -93.49383526 78.96479719 -88.36743164 73.8815918 C-87.21036461 72.71663933 -87.21036461 72.71663933 -86.02992249 71.52815247 C-83.4961559 68.98125805 -80.95166436 66.44540568 -78.40625 63.91015625 C-76.63371149 62.13559536 -74.86161839 60.36058946 -73.08995056 58.5851593 C-69.38359395 54.87438945 -65.6720207 51.16891778 -61.95629883 47.4675293 C-57.66930216 43.19687976 -53.39325189 38.91549807 -49.12267882 34.62843007 C-44.99951397 30.48998274 -40.86792222 26.36004336 -36.73272514 22.2336216 C-34.97985111 20.48274675 -33.22919719 18.7296463 -31.48082161 16.9742794 C-29.03745421 14.52328628 -26.58466359 12.0821273 -24.12915039 9.64331055 C-23.41051819 8.91860565 -22.69188599 8.19390076 -21.95147705 7.44723511 C-15.75603884 1.32953893 -8.9299921 -3.73813623 0 0 Z " fill="#F4F0FD" transform="translate(190.18359375,265.9140625)"/>
<path d="M0 0 C2.18534517 1.13314194 4.16263138 2.42043615 6.19140625 3.8125 C8.50964992 5.33462975 10.22225084 5.92690134 13 6 C15.00431449 5.34641919 17.0040278 4.67863055 19 4 C24.26230149 3.53015165 27.5576146 4.10279213 32 7 C35.26748907 9.84129485 36.71886356 11.35718533 37.44921875 15.625 C37.63053406 20.22665756 37.32987289 23.31581919 35.3125 27.5 C30.86544129 32.30763104 25.49476659 33.99026132 19.42578125 36.03515625 C16.86963675 36.86655907 16.86963675 36.86655907 15 39 C14.49033587 44.88336903 14.49033587 44.88336903 17 50 C22.69864578 49.46753477 27.50269148 48.34966873 32.8125 46.25 C33.5024707 45.98485596 34.19244141 45.71971191 34.90332031 45.4465332 C39.94798273 43.48296109 44.88418738 41.32264922 49.765625 38.98046875 C54.19186222 37.03818633 57.91220645 36.88912206 62.75 36.9375 C64.50570312 36.95103516 64.50570312 36.95103516 66.296875 36.96484375 C67.18890625 36.97644531 68.0809375 36.98804688 69 37 C67.58435241 40.21929512 65.8868688 42.35293945 63.39233398 44.81884766 C62.65494492 45.55285797 61.91755585 46.28686829 61.15782166 47.04312134 C60.36195145 47.82553192 59.56608124 48.6079425 58.74609375 49.4140625 C57.52201561 50.63033829 57.52201561 50.63033829 56.27320862 51.8711853 C53.66600207 54.46057729 51.05221012 57.04318687 48.4375 59.625 C45.82009876 62.2148143 43.20415351 64.80605732 40.59107971 67.40023804 C38.96452551 69.01450312 37.33530632 70.62608806 35.70323181 72.23477173 C34.9689949 72.96247772 34.234758 73.69018372 33.47827148 74.43994141 C32.82922348 75.08073639 32.18017548 75.72153137 31.51145935 76.38174438 C29.91066367 77.94226397 29.91066367 77.94226397 29 80 C21.22432893 82.59189036 11.77534409 81.91813004 4.375 78.44921875 C-5.6088775 72.35708297 -12.99835749 63.37895389 -16 52 C-16.27287477 49.01507686 -16.27983106 46.05803514 -16.25 43.0625 C-16.25773437 42.28970703 -16.26546875 41.51691406 -16.2734375 40.72070312 C-16.26033679 36.84616679 -15.98046124 33.93587616 -14.8359375 30.1796875 C-13.69008574 27.12972248 -13.69008574 27.12972248 -14.8984375 24.84765625 C-15.38570313 24.25855469 -15.87296875 23.66945313 -16.375 23.0625 C-19.44997444 18.69856367 -19.75859245 16.31014714 -19 11 C-17.30203013 6.0958635 -14.58115407 2.95091244 -9.91796875 0.6640625 C-6.51586917 -0.51385385 -3.47186113 -0.7950827 0 0 Z " fill="#FDEAB9" transform="translate(308,97)"/>
<path d="M0 0 C4.52741306 2.57522578 7.21220499 4.97254597 8.81640625 10.0859375 C9.71516578 17.05132383 7.9317221 20.55844461 3.81640625 26.0859375 C0.94079474 29.36514204 -2.11639327 32.43980695 -5.2109375 35.51171875 C-6.07747452 36.38112595 -6.94401154 37.25053314 -7.83680725 38.14628601 C-9.66120165 39.97271282 -11.48935373 41.79539305 -13.32104492 43.61450195 C-16.119259 46.39661331 -18.901061 49.19441675 -21.68164062 51.99414062 C-23.46127816 53.77179635 -25.24184576 55.54852156 -27.0234375 57.32421875 C-27.85173569 58.15858963 -28.68003387 58.99296051 -29.53343201 59.85261536 C-34.6510514 64.90852561 -38.69129446 68.63531824 -46.05859375 69.5859375 C-50.95082571 69.37935573 -54.54384748 67.25711873 -58.18359375 64.0859375 C-60.88128651 60.29230706 -61.80435373 56.82678835 -61.58778381 52.13554382 C-60.02525913 44.21214152 -52.61376286 38.07775473 -47.15625 32.66015625 C-46.28971298 31.79074905 -45.42317596 30.92134186 -44.53038025 30.02558899 C-42.70598585 28.19916218 -40.87783377 26.37648195 -39.04614258 24.55737305 C-36.2479285 21.77526169 -33.4661265 18.97745825 -30.68554688 16.17773438 C-28.90590934 14.40007865 -27.12534174 12.62335344 -25.34375 10.84765625 C-24.51545181 10.01328537 -23.68715363 9.17891449 -22.83375549 8.31925964 C-16.36703102 1.93051205 -9.47216556 -3.96509256 0 0 Z " fill="#E2DCF1" transform="translate(198.18359375,353.9140625)"/>
<path d="M0 0 C3.40368769 1.47405756 5.63922214 3.38115839 8.26196289 5.98730469 C9.50829247 7.21933624 9.50829247 7.21933624 10.77980042 8.47625732 C12.11276405 9.81058807 12.11276405 9.81058807 13.47265625 11.171875 C14.39211533 12.08704895 15.3115744 13.0022229 16.25889587 13.94512939 C18.20311973 15.88190114 20.14343533 17.82249016 22.08129883 19.765625 C24.55648603 22.24659891 27.04283358 24.71603779 29.53249454 27.18247604 C31.9153487 29.54699067 34.28709824 31.92252905 36.66015625 34.296875 C37.55082291 35.17833191 38.44148956 36.05978882 39.35914612 36.96795654 C40.18688034 37.80191956 41.01461456 38.63588257 41.86743164 39.49511719 C42.59483047 40.2218866 43.32222931 40.94865601 44.07167053 41.69744873 C47.67863892 46.00440445 49.65511707 50.20154569 49.4140625 55.91015625 C48.37469883 61.15600119 45.47553898 64.95072784 41.1875 68 C36.64868716 69.42394128 32.61791154 70.16549369 28.19763184 68.19758606 C21.9927692 64.39116056 17.11341502 59.49607007 12.03125 54.32421875 C11.11033569 53.3990596 10.18942139 52.47390045 9.24060059 51.52070618 C6.81402121 49.08277243 4.39659499 46.63596209 1.9810791 44.18707275 C-0.49403938 41.68104844 -2.977868 39.18368878 -5.4609375 36.68554688 C-10.31576305 31.79872367 -15.16095655 26.90245021 -20 22 C-18.38223883 18.57517293 -16.57656756 16.34309478 -13.8671875 13.671875 C-12.65869141 12.47304687 -12.65869141 12.47304687 -11.42578125 11.25 C-10.58402344 10.425 -9.74226562 9.6 -8.875 8.75 C-8.02550781 7.90953125 -7.17601562 7.0690625 -6.30078125 6.203125 C-4.20495077 4.13084317 -2.10459287 2.06337607 0 0 Z " fill="#FF415B" transform="translate(166,130)"/>
<path d="M0 0 C5.81016584 3.02218031 10.06349377 7.74358107 14.59765625 12.38183594 C15.5494109 13.34106561 16.50206346 14.29940513 17.45556641 15.25689697 C19.94359206 17.76007975 22.41936038 20.27504253 24.89263916 22.79278564 C27.42624159 25.36755669 29.97143135 27.93081872 32.515625 30.49511719 C37.49176991 35.51395734 42.45503724 40.54535355 47.41015625 45.58496094 C45.79239508 49.00978801 43.98672381 51.24186616 41.27734375 53.91308594 C40.47167969 54.71230469 39.66601562 55.51152344 38.8359375 56.33496094 C37.99417969 57.15996094 37.15242188 57.98496094 36.28515625 58.83496094 C35.43566406 59.67542969 34.58617187 60.51589844 33.7109375 61.38183594 C31.61510702 63.45411777 29.51474912 65.52158486 27.41015625 67.58496094 C24.01338059 66.1119535 21.77176115 64.20962659 19.14819336 61.61352539 C18.31730698 60.79539871 17.48642059 59.97727203 16.63035583 59.13435364 C15.74171341 58.24793686 14.85307098 57.36152008 13.9375 56.44824219 C13.01804092 55.53543991 12.09858185 54.62263763 11.15126038 53.68217468 C9.2068833 51.74975778 7.2666698 49.81326632 5.32885742 47.87426758 C2.8553656 45.40057286 0.36842138 42.94090682 -2.12233829 40.48461628 C-4.507283 38.1273745 -6.87768337 35.75569182 -9.25 33.38574219 C-10.14066666 32.50944656 -11.03133331 31.63315094 -11.94898987 30.7303009 C-17.46308031 25.17521949 -20.9401252 21.051776 -22.08984375 13.14746094 C-21.42340067 8.39905399 -19.69466537 5.21269988 -16.58984375 1.58496094 C-11.04882428 -2.2696613 -6.22156103 -2.45240531 0 0 Z " fill="#EA2445" transform="translate(334.58984375,298.4150390625)"/>
<path d="M0 0 C4.60814942 2.18280762 6.75838364 4.4845224 9 9 C9.61798425 13.79413883 9.46355589 18.60768513 9.4375 23.4375 C9.4674707 25.40299805 9.4674707 25.40299805 9.49804688 27.40820312 C9.49740234 28.67470703 9.49675781 29.94121094 9.49609375 31.24609375 C9.49887329 32.97363892 9.49887329 32.97363892 9.50170898 34.73608398 C8.74800102 39.63940357 6.50804849 42.82872424 2.62109375 45.84765625 C-2.12829103 47.93568681 -6.92248151 47.61920957 -12 47 C-16.60814942 44.81719238 -18.75838364 42.5154776 -21 38 C-21.61798425 33.20586117 -21.46355589 28.39231487 -21.4375 23.5625 C-21.45748047 22.25216797 -21.47746094 20.94183594 -21.49804688 19.59179688 C-21.49740234 18.32529297 -21.49675781 17.05878906 -21.49609375 15.75390625 C-21.49794678 14.60220947 -21.4997998 13.4505127 -21.50170898 12.26391602 C-20.74800102 7.36059643 -18.50804849 4.17127576 -14.62109375 1.15234375 C-9.87170897 -0.93568681 -5.07751849 -0.61920957 0 0 Z " fill="#FDDC79" transform="translate(454,465)"/>
<path d="M0 0 C1.96549805 -0.0299707 1.96549805 -0.0299707 3.97070312 -0.06054688 C5.87045898 -0.05958008 5.87045898 -0.05958008 7.80859375 -0.05859375 C8.96029053 -0.06044678 10.1119873 -0.0622998 11.29858398 -0.06420898 C16.20190357 0.68949898 19.39122424 2.92945151 22.41015625 6.81640625 C24.49818681 11.56579103 24.18170957 16.35998151 23.5625 21.4375 C21.37969238 26.04564942 19.0779776 28.19588364 14.5625 30.4375 C9.76836117 31.05548425 4.95481487 30.90105589 0.125 30.875 C-1.84049805 30.9049707 -1.84049805 30.9049707 -3.84570312 30.93554688 C-5.11220703 30.93490234 -6.37871094 30.93425781 -7.68359375 30.93359375 C-8.83529053 30.93544678 -9.9869873 30.9372998 -11.17358398 30.93920898 C-16.07690357 30.18550102 -19.26622424 27.94554849 -22.28515625 24.05859375 C-24.37318681 19.30920897 -24.05670957 14.51501849 -23.4375 9.4375 C-18.52862699 -0.92567635 -10.14711334 -0.05474166 0 0 Z " fill="#FDDC79" transform="translate(488.4375,432.5625)"/>
<path d="M0 0 C1.96549805 -0.0299707 1.96549805 -0.0299707 3.97070312 -0.06054688 C5.87045898 -0.05958008 5.87045898 -0.05958008 7.80859375 -0.05859375 C8.96029053 -0.06044678 10.1119873 -0.0622998 11.29858398 -0.06420898 C16.20190357 0.68949898 19.39122424 2.92945151 22.41015625 6.81640625 C24.49818681 11.56579103 24.18170957 16.35998151 23.5625 21.4375 C21.37969238 26.04564942 19.0779776 28.19588364 14.5625 30.4375 C9.76836117 31.05548425 4.95481487 30.90105589 0.125 30.875 C-1.84049805 30.9049707 -1.84049805 30.9049707 -3.84570312 30.93554688 C-5.11220703 30.93490234 -6.37871094 30.93425781 -7.68359375 30.93359375 C-8.83529053 30.93544678 -9.9869873 30.9372998 -11.17358398 30.93920898 C-16.07690357 30.18550102 -19.26622424 27.94554849 -22.28515625 24.05859375 C-24.37318681 19.30920897 -24.05670957 14.51501849 -23.4375 9.4375 C-18.52862699 -0.92567635 -10.14711334 -0.05474166 0 0 Z " fill="#FDECB9" transform="translate(23.4375,48.5625)"/>
<path d="M0 0 C4.60814942 2.18280762 6.75838364 4.4845224 9 9 C9.61798425 13.79413883 9.46355589 18.60768513 9.4375 23.4375 C9.4674707 25.40299805 9.4674707 25.40299805 9.49804688 27.40820312 C9.49740234 28.67470703 9.49675781 29.94121094 9.49609375 31.24609375 C9.49887329 32.97363892 9.49887329 32.97363892 9.50170898 34.73608398 C8.74800102 39.63940357 6.50804849 42.82872424 2.62109375 45.84765625 C-2.12829103 47.93568681 -6.92248151 47.61920957 -12 47 C-16.60814942 44.81719238 -18.75838364 42.5154776 -21 38 C-21.61798425 33.20586117 -21.46355589 28.39231487 -21.4375 23.5625 C-21.45748047 22.25216797 -21.47746094 20.94183594 -21.49804688 19.59179688 C-21.49740234 18.32529297 -21.49675781 17.05878906 -21.49609375 15.75390625 C-21.49794678 14.60220947 -21.4997998 13.4505127 -21.50170898 12.26391602 C-20.74800102 7.36059643 -18.50804849 4.17127576 -14.62109375 1.15234375 C-9.87170897 -0.93568681 -5.07751849 -0.61920957 0 0 Z " fill="#FDECB9" transform="translate(70,0)"/>
<path d="M0 0 C1.26263672 -0.01998047 2.52527344 -0.03996094 3.82617188 -0.06054688 C15.52455592 -0.05437359 15.52455592 -0.05437359 20.0625 4.4375 C24.11880398 9.66009857 23.83647544 15.09090142 23.0625 21.4375 C20.87860301 26.0479492 18.57434003 28.18657671 14.0625 30.4375 C9.43472664 31.05203622 4.78934853 30.90111086 0.125 30.875 C-1.13763672 30.89498047 -2.40027344 30.91496094 -3.70117188 30.93554688 C-15.39955592 30.92937359 -15.39955592 30.92937359 -19.9375 26.4375 C-23.99380398 21.21490143 -23.71147544 15.78409858 -22.9375 9.4375 C-18.10736291 -0.75945608 -10.00675986 -0.05601749 0 0 Z " fill="#FDDC79" transform="translate(407.9375,432.5625)"/>
<path d="M0 0 C4.6104492 2.18389699 6.74907671 4.48815997 9 9 C9.61453622 13.62777336 9.46361086 18.27315147 9.4375 22.9375 C9.4674707 24.83145508 9.4674707 24.83145508 9.49804688 26.76367188 C9.49187359 38.46205592 9.49187359 38.46205592 5 43 C-0.22259857 47.05630398 -5.65340142 46.77397544 -12 46 C-16.6104492 43.81610301 -18.74907671 41.51184003 -21 37 C-21.61453622 32.37222664 -21.46361086 27.72684853 -21.4375 23.0625 C-21.45748047 21.79986328 -21.47746094 20.53722656 -21.49804688 19.23632812 C-21.49187359 7.53794408 -21.49187359 7.53794408 -17 3 C-11.77740143 -1.05630398 -6.34659858 -0.77397544 0 0 Z " fill="#FDDC79" transform="translate(454,385)"/>
<path d="M0 0 C4.6104492 2.18389699 6.74907671 4.48815997 9 9 C9.61453622 13.62777336 9.46361086 18.27315147 9.4375 22.9375 C9.4674707 24.83145508 9.4674707 24.83145508 9.49804688 26.76367188 C9.49187359 38.46205592 9.49187359 38.46205592 5 43 C-0.22259857 47.05630398 -5.65340142 46.77397544 -12 46 C-16.6104492 43.81610301 -18.74907671 41.51184003 -21 37 C-21.61453622 32.37222664 -21.46361086 27.72684853 -21.4375 23.0625 C-21.45748047 21.79986328 -21.47746094 20.53722656 -21.49804688 19.23632812 C-21.49187359 7.53794408 -21.49187359 7.53794408 -17 3 C-11.77740143 -1.05630398 -6.34659858 -0.77397544 0 0 Z " fill="#FDECB9" transform="translate(70,81)"/>
<path d="M0 0 C1.26263672 -0.01998047 2.52527344 -0.03996094 3.82617188 -0.06054688 C15.52455592 -0.05437359 15.52455592 -0.05437359 20.0625 4.4375 C24.11880398 9.66009857 23.83647544 15.09090142 23.0625 21.4375 C20.87860301 26.0479492 18.57434003 28.18657671 14.0625 30.4375 C9.43472664 31.05203622 4.78934853 30.90111086 0.125 30.875 C-1.13763672 30.89498047 -2.40027344 30.91496094 -3.70117188 30.93554688 C-15.39955592 30.92937359 -15.39955592 30.92937359 -19.9375 26.4375 C-23.99380398 21.21490143 -23.71147544 15.78409858 -22.9375 9.4375 C-18.10736291 -0.75945608 -10.00675986 -0.05601749 0 0 Z " fill="#FDECB9" transform="translate(103.9375,48.5625)"/>
<path d="M0 0 C2.28334578 1.08548764 3.72754581 2.31403193 5.52099609 4.09716797 C6.17132813 4.74363281 6.82166016 5.39009766 7.49169922 6.05615234 C8.16007812 6.73613281 8.82845703 7.41611328 9.51708984 8.11669922 C10.18933594 8.77734375 10.86158203 9.43798828 11.55419922 10.11865234 C16.10639787 14.69797433 19.53472555 18.69024611 20.39208984 25.30419922 C19.84230741 29.85953935 18.78143036 33.27885334 15.95458984 36.92919922 C12.37203132 39.70354497 8.89501037 40.7780602 4.45458984 41.49169922 C-3.40016723 40.22932755 -9.17054852 34.3272232 -14.60791016 28.86669922 C-15.24792969 28.25503906 -15.88794922 27.64337891 -16.54736328 27.01318359 C-17.14613281 26.41699219 -17.74490234 25.82080078 -18.36181641 25.20654297 C-18.90265869 24.67279053 -19.44350098 24.13903809 -20.00073242 23.58911133 C-21.04541016 21.92919922 -21.04541016 21.92919922 -20.95654297 19.99707031 C-18.93778524 15.4153774 -14.72944976 12.10240524 -11.23291016 8.61669922 C-10.00217773 7.34342773 -10.00217773 7.34342773 -8.74658203 6.04443359 C-7.55452148 4.84850586 -7.55452148 4.84850586 -6.33837891 3.62841797 C-5.61158936 2.89453857 -4.8847998 2.16065918 -4.13598633 1.40454102 C-2.04541016 -0.07080078 -2.04541016 -0.07080078 0 0 Z " fill="#EA2445" transform="translate(275.04541015625,238.07080078125)"/>
</svg>
