<?xml version="1.0" encoding="UTF-8"?>
<svg version="1.1" xmlns="http://www.w3.org/2000/svg" width="512" height="512">
<path d="M0 0 C21.75417937 19.14162641 36.80086161 44.93907744 45.3269043 72.45141602 C45.56111084 73.19230469 45.79531738 73.93319336 46.03662109 74.6965332 C50.4504032 89.66762632 51.51584771 104.54904162 51.36987305 120.05297852 C51.36425754 121.84328856 51.35999673 123.63360331 51.35700989 125.42391968 C51.34571461 130.06971629 51.31638524 134.71521834 51.28289795 139.36090088 C51.25186087 144.12801126 51.2384337 148.8951706 51.22338867 153.66235352 C51.19149603 162.96716837 51.14049255 172.27176743 51.0769043 181.57641602 C52.48480225 182.03455688 52.48480225 182.03455688 53.92114258 182.50195312 C66.44449897 186.76586241 73.87166955 195.57535298 79.8503418 206.99829102 C83.87928324 218.75150872 83.36408613 231.22463667 83.33569336 243.48071289 C83.33840841 245.46151355 83.34197221 247.4423132 83.34631348 249.42311096 C83.3553786 254.76811036 83.35191761 260.11303197 83.34555531 265.45803261 C83.34046474 271.07199934 83.34519522 276.68595975 83.34832764 282.29992676 C83.3519584 291.72462144 83.34719156 301.1492847 83.33764648 310.57397461 C83.32676367 321.44454133 83.33028988 332.315033 83.3412993 343.1855979 C83.35039755 352.54650178 83.35164506 361.90738317 83.34642196 371.26829004 C83.3433162 376.84703964 83.3428544 382.42575405 83.34949493 388.00450134 C83.35530479 393.2511487 83.35120534 398.49770002 83.33970642 403.74433708 C83.33707921 405.66105427 83.33779144 407.57777964 83.34223175 409.49449348 C83.37941635 427.18722009 83.07933822 444.11132692 70.10424805 457.76782227 C58.84155311 467.81527459 45.87246942 471.20068529 31.06005859 471.08435059 C29.81672351 471.09059055 28.57338842 471.09683051 27.29237652 471.10325956 C23.88045048 471.11634815 20.46941948 471.11178257 17.05754995 471.09931469 C13.36285083 471.09019876 9.66822535 471.10426607 5.97354126 471.11523438 C-1.24880159 471.13295495 -8.47097751 471.1292086 -15.69332671 471.11758381 C-21.56677471 471.10852419 -27.44017616 471.10733639 -33.31362915 471.11167908 C-34.1518242 471.11229201 -34.99001925 471.11290494 -35.85361415 471.11353645 C-37.55676772 471.11481544 -39.25992127 471.1161123 -40.9630748 471.11742681 C-56.90704884 471.12881368 -72.85093066 471.1157487 -88.79488957 471.09422535 C-102.45453308 471.07635608 -116.11404058 471.07946072 -129.77368164 471.09790039 C-145.66335759 471.11934064 -161.55295286 471.12771522 -177.44264126 471.11545134 C-179.13928158 471.11417723 -180.83592191 471.11291975 -182.53256226 471.11167908 C-183.36718768 471.11106198 -184.2018131 471.11044487 -185.06173021 471.10980907 C-190.92330423 471.10636562 -196.78482677 471.11216276 -202.64639282 471.12159729 C-209.79661565 471.13285379 -216.94666299 471.12970092 -224.09686589 471.10847431 C-227.74009427 471.0980127 -231.38303081 471.09375761 -235.02625656 471.10707092 C-238.98641687 471.12132278 -242.94610666 471.10422547 -246.90625 471.08435059 C-248.04236379 471.09327347 -249.17847757 471.10219636 -250.34901905 471.11138964 C-263.81719635 470.98092534 -275.83565644 466.79122214 -285.95043945 457.76782227 C-299.64241353 443.35679485 -299.22488053 425.23175216 -299.18188477 406.67211914 C-299.18459982 404.69131848 -299.18816362 402.71051883 -299.19250488 400.72972107 C-299.20157 395.38472167 -299.19810901 390.03980007 -299.19174671 384.69479942 C-299.18665614 379.08083269 -299.19138662 373.46687229 -299.19451904 367.85290527 C-299.19814981 358.42821059 -299.19338297 349.00354733 -299.18383789 339.57885742 C-299.17295508 328.70829071 -299.17648128 317.83779903 -299.1874907 306.96723413 C-299.19658895 297.60633025 -299.19783646 288.24544887 -299.19261336 278.88454199 C-299.1895076 273.30579239 -299.18904581 267.72707798 -299.19568634 262.14833069 C-299.20149619 256.90168333 -299.19739675 251.65513202 -299.18589783 246.40849495 C-299.18327062 244.49177776 -299.18398284 242.57505239 -299.18842316 240.65833855 C-299.22720857 222.20393222 -298.58275162 205.7449417 -285.1340332 191.54907227 C-279.68450249 186.68685846 -273.81218583 183.81817916 -266.9230957 181.57641602 C-266.92753693 180.68708878 -266.93197815 179.79776154 -266.93655396 178.88148499 C-266.97693379 170.42500964 -267.00723217 161.96856752 -267.02672005 153.51201725 C-267.03707631 149.16633492 -267.05108276 144.82073346 -267.07397461 140.47509766 C-267.09599863 136.26698979 -267.10772531 132.05895879 -267.11285019 127.85079765 C-267.11649374 126.25996125 -267.12360507 124.66912816 -267.13455582 123.07832527 C-267.23024063 108.57725148 -266.22595307 94.26765185 -262.7355957 80.13891602 C-262.52128906 79.26332031 -262.30698242 78.38772461 -262.08618164 77.4855957 C-252.1218921 38.48815701 -226.24024477 2.98009403 -191.80200195 -18.00170898 C-187.91100405 -20.27827122 -183.93793515 -22.37530075 -179.9230957 -24.42358398 C-179.31820312 -24.74020996 -178.71331055 -25.05683594 -178.09008789 -25.38305664 C-119.15362104 -56.00251785 -48.90035048 -42.11472139 0 0 Z M-177.9621582 53.27563477 C-209.15267407 89.87167828 -202.9230957 131.15003125 -202.9230957 179.57641602 C-140.2230957 179.57641602 -77.5230957 179.57641602 -12.9230957 179.57641602 C-9.19854746 111.38549236 -9.19854746 111.38549236 -36.9230957 54.57641602 C-38.12192383 53.23643555 -38.12192383 53.23643555 -39.3449707 51.86938477 C-55.1100158 35.19481783 -77.71923488 23.50611996 -100.9230957 22.57641602 C-102.43709961 22.49907227 -102.43709961 22.49907227 -103.98168945 22.42016602 C-131.82650275 21.661624 -158.76239958 33.06323065 -177.9621582 53.27563477 Z M-140.8059082 278.59204102 C-149.43486254 289.60588223 -152.3206914 301.7017847 -150.9230957 315.57641602 C-148.38111434 327.28975058 -140.94009626 337.7424823 -131.1105957 344.51391602 C-129.02857374 345.72205067 -129.02857374 345.72205067 -126.9230957 345.57641602 C-126.9545166 346.64956055 -126.9545166 346.64956055 -126.98657227 347.74438477 C-127.07030403 351.02158253 -127.12193621 354.29855443 -127.1730957 357.57641602 C-127.20661133 358.70176758 -127.24012695 359.82711914 -127.2746582 360.98657227 C-127.36813484 368.97882481 -126.46680389 374.5602134 -121.10668945 380.63500977 C-120.53047852 381.09004883 -119.95426758 381.54508789 -119.3605957 382.01391602 C-118.49241211 382.72354492 -118.49241211 382.72354492 -117.60668945 383.44750977 C-113.17862254 386.4166776 -108.03183327 386.00014542 -102.9230957 385.57641602 C-97.49912164 383.80319373 -94.07140836 380.22302205 -90.9230957 375.57641602 C-89.11696015 371.77891082 -88.68480945 368.80932609 -88.7277832 364.61938477 C-88.73745117 362.95166016 -88.73745117 362.95166016 -88.74731445 361.25024414 C-88.76407227 360.09975586 -88.78083008 358.94926758 -88.7980957 357.76391602 C-88.80711914 356.5940918 -88.81614258 355.42426758 -88.82543945 354.21899414 C-88.84895838 351.33792548 -88.88182718 348.45727612 -88.9230957 345.57641602 C-88.13990967 345.27622559 -87.35672363 344.97603516 -86.54980469 344.66674805 C-76.96924889 340.68991356 -70.59843582 330.83586372 -66.68481445 321.65454102 C-63.12749283 311.94943791 -63.82892395 299.92560447 -67.54418945 290.38500977 C-73.09142867 279.08624208 -81.45400791 271.15243702 -92.9855957 266.07641602 C-110.25065212 260.52781826 -128.47512182 265.39144812 -140.8059082 278.59204102 Z " fill="#ffffff" transform="translate(363.923095703125,41.423583984375)"/>
</svg>
