<?xml version="1.0" encoding="UTF-8"?>
<svg version="1.1" xmlns="http://www.w3.org/2000/svg" width="512" height="512">
<path d="M0 0 C6.27189093 5.68490274 11.7652048 11.73831616 16.85961914 18.515625 C17.45637451 19.29993896 17.45637451 19.29993896 18.06518555 20.10009766 C31.77242399 38.21418919 41.04820158 57.73833017 46.73461914 79.765625 C46.92572266 80.49555664 47.11682617 81.22548828 47.3137207 81.97753906 C50.66037958 95.91688957 51.153094 110.10333756 51.05493164 124.36328125 C51.0511874 125.99808069 51.04834714 127.63288242 51.0463562 129.26768494 C51.03883052 133.50736015 51.01928162 137.74689163 50.99694824 141.98651123 C50.97624691 146.33799293 50.96730333 150.68949856 50.95727539 155.04101562 C50.93602161 163.53261701 50.90202507 172.02410298 50.85961914 180.515625 C51.80200439 180.81960205 52.74438965 181.1235791 53.71533203 181.43676758 C63.88874254 184.92743464 71.92766882 192.83145794 76.79711914 202.25 C80.68624261 210.54298387 82.01001244 218.03257258 82.00006104 227.16677856 C82.00451772 228.45421253 82.00451772 228.45421253 82.00906444 229.76765525 C82.01771974 232.63694289 82.019257 235.50618864 82.02075195 238.37548828 C82.02538241 240.43569528 82.03040738 242.49590142 82.03579712 244.55610657 C82.04890214 250.1493535 82.05536251 255.74258845 82.05980778 261.33584833 C82.06274188 264.83324373 82.06684735 268.33063588 82.07131195 271.82802963 C82.08498258 282.77906056 82.09465107 293.73008403 82.09851384 304.6811229 C82.10299209 317.30644308 82.12053104 329.93165487 82.14951444 342.55694211 C82.17115981 352.32617415 82.18121967 362.09537577 82.18255496 371.86463153 C82.18360104 377.69443551 82.18946683 383.52413752 82.20737457 389.35391617 C82.22390436 394.84179428 82.22598693 400.32949433 82.21723557 405.81738853 C82.21646779 407.82482952 82.22077347 409.83228027 82.23069382 411.83969688 C82.30810094 428.48772564 81.17526459 443.04147509 69.56665039 456.09375 C58.30089481 466.91174105 45.59616195 469.82383449 30.44404602 469.78305054 C29.20498306 469.78758165 27.9659201 469.79211276 26.68930978 469.79678118 C23.26633417 469.80722166 19.84356935 469.80875614 16.4205929 469.80639243 C12.72241196 469.8059831 9.02426197 469.81703452 5.32609558 469.82650757 C-1.9135949 469.84309396 -9.1532528 469.84861606 -16.39296069 469.84973232 C-22.28082119 469.850684 -28.16867098 469.85480027 -34.05652809 469.86113358 C-50.76602336 469.87874021 -67.47549297 469.88797345 -84.18499758 469.88647263 C-85.08510561 469.88639272 -85.98521363 469.8863128 -86.91259766 469.88623047 C-87.8138105 469.88614871 -88.71502334 469.88606695 -89.64354566 469.88598271 C-104.24218235 469.88517016 -118.84071578 469.90430138 -133.43932261 469.9325072 C-148.44508067 469.96126983 -163.45078843 469.97504561 -178.45657474 469.97331965 C-186.87471143 469.97265687 -195.29273988 469.97809967 -203.71085167 469.99967575 C-210.87947748 470.01793217 -218.04794601 470.02219848 -225.21658506 470.0086569 C-228.86991702 470.0021494 -232.52294761 470.00192893 -236.17625046 470.0193634 C-240.14760108 470.03811969 -244.11851717 470.02548159 -248.08988953 470.01010132 C-249.7991761 470.02553201 -249.7991761 470.02553201 -251.54299372 470.04127443 C-264.34877799 469.93220681 -276.68553644 466.22365137 -286.32397461 457.55078125 C-296.30361386 447.11837954 -300.46922554 434.68737868 -300.40107727 420.50370789 C-300.40490282 419.6428553 -300.40872836 418.78200272 -300.41266984 417.8950637 C-300.42291822 415.03504065 -300.4190233 412.17522144 -300.41503906 409.31518555 C-300.41939009 407.25453507 -300.42457454 405.19388622 -300.43052673 403.13323975 C-300.44388672 397.55254812 -300.44449868 391.97192435 -300.44196343 386.39121985 C-300.44089157 381.7244474 -300.44578266 377.05768856 -300.45056885 372.39091903 C-300.46165392 361.37624355 -300.46210723 350.36160218 -300.45605469 339.34692383 C-300.45001664 328.00265483 -300.46232398 316.65850992 -300.48362476 305.31426209 C-300.50126743 295.55770253 -300.50723786 285.80118237 -300.50398701 276.04460746 C-300.50217809 270.22491665 -300.50477126 264.40531434 -300.51870155 258.58563805 C-300.53131845 253.11002063 -300.52929927 247.63459594 -300.51629066 242.15898132 C-300.51393365 240.15637966 -300.51662799 238.15376427 -300.52491379 236.15117836 C-300.59268096 218.49074342 -299.09098899 204.17373512 -286.55834961 190.84375 C-277.20371122 181.83669914 -266.2042625 177.87510565 -253.32661438 178.03460693 C-252.29632762 178.03118923 -251.26604085 178.02777153 -250.20453328 178.02425027 C-246.78352513 178.01770934 -243.36331756 178.03958516 -239.94238281 178.06152344 C-237.47773761 178.06265273 -235.01309107 178.06201646 -232.54844666 178.05975342 C-227.25831802 178.05884522 -221.96843427 178.07012315 -216.67836952 178.09270477 C-209.03004197 178.12533167 -201.38180963 178.13564265 -193.73342004 178.14065674 C-181.32190018 178.14939271 -168.91048599 178.17596198 -156.49902344 178.21386719 C-144.44857305 178.25063138 -132.39815146 178.2789215 -120.34765625 178.29589844 C-119.60379731 178.29694933 -118.85993838 178.29800023 -118.09353826 178.29908296 C-114.36149761 178.30430344 -110.62945675 178.30935819 -106.89741576 178.31433058 C-75.97832731 178.3557397 -45.05937019 178.42644075 -14.14038086 178.515625 C-14.20202566 169.38685018 -14.27943529 160.2583763 -14.37609577 151.12990475 C-14.42051928 146.88960161 -14.45983405 142.64938838 -14.48681641 138.40893555 C-14.51313289 134.3043957 -14.55372655 130.20020729 -14.60356712 126.09588814 C-14.62004685 124.54253122 -14.63167712 122.98911379 -14.63799477 121.4356823 C-14.76303427 93.47441045 -23.70848568 69.45064789 -43.44116211 49.1484375 C-63.44525189 30.224765 -87.76801531 22.89678234 -114.90991211 23.2421875 C-139.5011808 23.99884192 -161.67363094 35.55385492 -178.72924805 52.97949219 C-193.07565725 68.59672518 -202.581324 89.97153435 -203.43017578 111.22436523 C-203.89315622 122.31599691 -205.56927081 131.96248812 -213.14038086 140.515625 C-221.41611871 147.67154353 -228.9157937 150.03651246 -239.79272461 149.82421875 C-248.75218934 148.9983171 -256.32342067 145.43755361 -262.14038086 138.515625 C-272.85521835 122.20942035 -269.65960592 102.81942055 -266.14038086 84.515625 C-257.13763079 43.11797926 -232.33277263 6.32767714 -196.86108398 -16.91992188 C-134.31231298 -56.85146618 -55.00322859 -48.81447618 0 0 Z M-143.14038086 278.515625 C-151.40329657 289.51484395 -153.33713491 301.06895028 -152.14038086 314.515625 C-149.6007265 326.10907542 -142.68058467 335.59690328 -133.14038086 342.515625 C-131.48377439 343.20691164 -129.81800536 343.87703415 -128.14038086 344.515625 C-128.17180176 345.58876953 -128.17180176 345.58876953 -128.20385742 346.68359375 C-128.28758919 349.96079152 -128.33922137 353.23776341 -128.39038086 356.515625 C-128.42389648 357.64097656 -128.45741211 358.76632812 -128.49194336 359.92578125 C-128.58542 367.9180338 -127.68408905 373.49942239 -122.32397461 379.57421875 C-121.74776367 380.02925781 -121.17155273 380.48429687 -120.57788086 380.953125 C-119.70969727 381.66275391 -119.70969727 381.66275391 -118.82397461 382.38671875 C-114.41564961 385.34264897 -109.22854159 385.06548712 -104.14038086 384.515625 C-98.74266433 382.70257242 -95.35963825 379.02258535 -92.14038086 374.515625 C-90.30433333 370.72912576 -89.9020854 367.74943264 -89.94506836 363.55859375 C-89.95473633 361.89086914 -89.95473633 361.89086914 -89.96459961 360.18945312 C-89.98135742 359.03896484 -89.99811523 357.88847656 -90.01538086 356.703125 C-90.0244043 355.53330078 -90.03342773 354.36347656 -90.04272461 353.15820312 C-90.06624354 350.27713447 -90.09911234 347.39648511 -90.14038086 344.515625 C-89.36621826 344.22300781 -88.59205566 343.93039062 -87.79443359 343.62890625 C-79.1273286 339.99336225 -73.11627103 331.72984033 -69.14038086 323.515625 C-68.6318457 322.49082031 -68.6318457 322.49082031 -68.11303711 321.4453125 C-64.07031281 311.64589784 -64.98938939 299.04919419 -68.75366211 289.328125 C-74.20515751 278.27157094 -82.34892261 269.96247338 -93.81225586 265.29296875 C-112.18319615 259.15904741 -130.07110741 264.46184885 -143.14038086 278.515625 Z " fill="#ffffff" transform="translate(365.140380859375,42.484375)"/>
</svg>
